<?xml version="1.0" encoding="UTF-8"?>
<svg width="64" height="64" version="1.1" viewBox="0 0 16.933 16.933" xmlns="http://www.w3.org/2000/svg"><path d="m0 0v16.933l16.933 1e-6v-16.933z" fill="#007305"/><g fill="none" stroke="#b0c23c" stroke-linejoin="round" stroke-width=".26458"><path d="m2.6458 0v2.1167"/><path d="m3.9688 0v2.1167"/><path d="m5.2917 0v2.1167"/><path d="m6.6146 0v2.1167"/><path d="m7.9375 0v2.1167"/><path d="m9.2604 0v2.1167"/><path d="m10.583 0v2.1167"/><path d="m11.906 0v2.1167"/><path d="m13.229 0v2.1167"/><path d="m14.552 0v2.1167"/><path d="m2.6458 14.817v2.1167"/><path d="m3.9688 14.817v2.1167"/><path d="m5.2917 14.817v2.1167"/><path d="m6.6146 14.817v2.1167"/><path d="m7.9375 14.817v2.1167"/><path d="m9.2604 14.817v2.1167"/><path d="m10.583 14.817v2.1167"/><path d="m11.906 14.817v2.1167"/><path d="m13.229 14.817v2.1167"/><path d="m14.552 14.817v2.1167"/><path d="m14.552 2.6458h2.3812"/><path d="m14.552 3.9688h2.3812"/><path d="m14.552 5.2917h2.3812"/><path d="m14.552 6.6146h2.3812"/><path d="m14.552 7.9375h2.3812"/><path d="m14.552 9.2604h2.3812"/><path d="m14.552 10.583h2.3812"/><path d="m14.552 11.906h2.3812"/><path d="m14.552 13.229h2.3812"/><path d="m14.552 14.552h2.3812"/><path d="m1.5264e-7 2.6458h2.3813"/><path d="m1.5264e-7 3.9688h2.3813"/><path d="m1.5264e-7 5.2917h2.3813"/><path d="m1.5264e-7 6.6146h2.3813"/><path d="m1.5264e-7 7.9375h2.3813"/><path d="m1.5264e-7 9.2604h2.3813"/><path d="m1.5264e-7 10.583h2.3813"/><path d="m1.5264e-7 11.906h2.3813"/><path d="m1.5264e-7 13.229h2.3813"/><path d="m1.5264e-7 14.552h2.3813"/></g></svg>
