<?xml version="1.0" encoding="UTF-8"?>
<svg version="1.1" viewBox="0 0 64 64" xmlns="http://www.w3.org/2000/svg"><path d="m7 7v51h51v-51z" fill="none" stroke="#000" stroke-linecap="square"/><path d="m15 10c-5 0-5 0-5 5v35c0 5 0 5 5 5 0-5.7355 1.8426-10.156 4.6816-13.26l-2.8809-3.8398a1.5 1.5 0 0 1 0.29883-2.0996 1.5 1.5 0 0 1 0.91602-0.30078 1.5 1.5 0 0 1 1.1836 0.59961l2.7109 3.6152c6.1469-4.6306 15.087-4.6189 21.221 0.033203l2.8086-2.8086a1.5 1.5 0 0 1 1.0605-0.43945 1.5 1.5 0 0 1 1.0605 0.43945 1.5 1.5 0 0 1 0 2.1211l-2.7129 2.7129c2.8225 3.1022 4.6523 7.5108 4.6523 13.227 5 0 5 0 5-5v-35c0-5 0-5-5-5h-35z"/></svg>
