<?xml version="1.0" encoding="UTF-8" standalone="no"?>
<!-- Created with Inkscape (http://www.inkscape.org/) -->

<svg
   width="64"
   height="64"
   viewBox="0 0 64 64"
   version="1.1"
   id="svg1"
   inkscape:version="1.4.3 (0d15f75042, 2025-12-25)"
   sodipodi:docname="foreground-monochrome_inkscape.svg"
   xmlns:inkscape="http://www.inkscape.org/namespaces/inkscape"
   xmlns:sodipodi="http://sodipodi.sourceforge.net/DTD/sodipodi-0.dtd"
   xmlns="http://www.w3.org/2000/svg"
   xmlns:svg="http://www.w3.org/2000/svg">
  <sodipodi:namedview
     id="namedview1"
     pagecolor="#ffffff"
     bordercolor="#000000"
     borderopacity="0.25"
     inkscape:showpageshadow="2"
     inkscape:pageopacity="0.0"
     inkscape:pagecheckerboard="0"
     inkscape:deskcolor="#d1d1d1"
     inkscape:document-units="px"
     showgrid="true"
     inkscape:zoom="9.0929513"
     inkscape:cx="28.923503"
     inkscape:cy="26.339083"
     inkscape:current-layer="layer1">
    <inkscape:grid
       id="grid1"
       units="px"
       originx="0"
       originy="0"
       spacingx="1"
       spacingy="1"
       empcolor="#0099e5"
       empopacity="0.30196078"
       color="#0099e5"
       opacity="0.14901961"
       empspacing="5"
       enabled="true"
       visible="true" />
  </sodipodi:namedview>
  <defs
     id="defs1" />
  <g
     inkscape:label="Layer 1"
     inkscape:groupmode="layer"
     id="layer1">
    <path
       style="display:inline;fill:none;stroke:#000000;stroke-width:1;stroke-linecap:square;stroke-linejoin:miter;fill-opacity:1;stroke-opacity:1;stroke-dasharray:none"
       d="M 7,7 V 58 H 58 V 7 Z"
       id="path1" />
    <path
       id="path3"
       style="display:inline;fill:#000000;fill-opacity:1;stroke:none;stroke-width:3;stroke-linecap:round;stroke-linejoin:round"
       d="M 15 10 C 10 10 10 10 10 15 L 10 50 C 10 55 10 55 15 55 C 15 49.264503 16.842559 44.844057 19.681641 41.740234 L 16.800781 37.900391 A 1.5 1.5 0 0 1 17.099609 35.800781 A 1.5 1.5 0 0 1 18.015625 35.5 A 1.5 1.5 0 0 1 19.199219 36.099609 L 21.910156 39.714844 C 28.057049 35.084209 36.996895 35.09598 43.130859 39.748047 L 45.939453 36.939453 A 1.5 1.5 0 0 1 47 36.5 A 1.5 1.5 0 0 1 48.060547 36.939453 A 1.5 1.5 0 0 1 48.060547 39.060547 L 45.347656 41.773438 C 48.170131 44.875605 50 49.284229 50 55 C 55 55 55 55 55 50 L 55 15 C 55 10 55 10 50 10 L 15 10 z " />
  </g>
</svg>
