<?xml version="1.0" encoding="UTF-8"?>
<svg version="1.1" viewBox="0 0 64 64" xmlns="http://www.w3.org/2000/svg" xmlns:xlink="http://www.w3.org/1999/xlink"><defs><linearGradient id="linearGradient2" x1="32" x2="32" y1="7" y2="58" gradientUnits="userSpaceOnUse"><stop stop-color="#019200" offset="0"/><stop stop-color="#a3e4a3" offset=".38756"/><stop stop-color="#019200" offset="1"/></linearGradient><linearGradient id="linearGradient5" x1="35" x2="35" y1="10" y2="55" gradientUnits="userSpaceOnUse"><stop stop-color="#a60000" offset="0"/><stop stop-color="#2b2b2b" offset="1"/></linearGradient><linearGradient id="linearGradient9" x1="34" x2="34" y1="55" y2="35" gradientUnits="userSpaceOnUse"><stop stop-color="#fff" offset=".51996"/><stop stop-color="#42e9ff" offset="1"/></linearGradient></defs><path d="m7 7v51h51v-51z" fill="url(#linearGradient2)"/><path d="m10 15v35c0 5 0 5 5 5h35c5 0 5 0 5-5v-35c0-5 0-5-5-5h-35c-5 0-5 0-5 5z" fill="url(#linearGradient5)"/><path d="m18.016 35.5a1.5 1.5 0 0 0-0.91602 0.30078 1.5 1.5 0 0 0-0.29883 2.0996l2.8809 3.8398c-2.8391 3.1038-4.6816 7.5243-4.6816 13.26h35c0-5.7158-1.8299-10.124-4.6523-13.227l2.7129-2.7129a1.5 1.5 0 0 0 0-2.1211 1.5 1.5 0 0 0-1.0605-0.43945 1.5 1.5 0 0 0-1.0605 0.43945l-2.8086 2.8086c-6.134-4.6521-15.074-4.6638-21.221-0.033203l-2.7109-3.6152a1.5 1.5 0 0 0-1.1836-0.59961z" fill="url(#linearGradient9)"/></svg>
